<?xml version="1.0" encoding="UTF-8" standalone="no"?>
<!DOCTYPE svg PUBLIC "-//W3C//DTD SVG 20010904//EN" "http://www.w3.org/TR/2001/REC-SVG-20010904/DTD/svg10.dtd">
<svg version="1.0" xmlns="http://www.w3.org/2000/svg" width="131.000000pt" height="536.000000pt" viewBox="0 0 131.000000 536.000000" preserveAspectRatio="xMidYMid meet">

<g transform="translate(0.000000,536.000000) scale(0.100000,-0.100000)" fill="#000000" stroke="none">
<path d="M410 4958 c-265 -438 -312 -524 -358 -668 -44 -136 -55 -205 -50 -322 3 -86 8 -113 32 -165 35 -76 113 -154 190 -188 59 -26 185 -55 240 -55 25 0 40 -7 53 -24 18 -23 20 -74 31 -1177 6 -635 9 -1165 7 -1179 -2 -14 -9 -74 -15 -135 -50 -482 -134 -879 -210 -992 -17 -24 -30 -46 -30 -49 0 -2 160 -4 355 -4 195 0 355 2 355 4 0 3 -13 25 -30 49 -76 113 -160 510 -210 992 -6 61 -13 121 -15 135 -2 14 1 544 7 1179 11 1103 13 1154 31 1177 13 17 28 24 53 24 55 0 181 29 240 55 77 34 155 112 190 188 24 52 29 79 32 165 2 57 -1 131 -7 165 -18 93 -69 242 -115 337 -34 69 -502 855 -526 883 -3 4 -116 -174 -250 -395z"/>
</g>
</svg>