<?xml version="1.0" standalone="no"?>
<!DOCTYPE svg PUBLIC "-//W3C//DTD SVG 20010904//EN"
 "http://www.w3.org/TR/2001/REC-SVG-20010904/DTD/svg10.dtd">
<svg version="1.0" xmlns="http://www.w3.org/2000/svg"
 width="89.000000pt" height="757.000000pt" viewBox="0 0 89.000000 757.000000"
 preserveAspectRatio="xMidYMid meet">

<g transform="translate(0.000000,757.000000) scale(0.100000,-0.100000)"
fill="#000000" stroke="none">
<path d="M437 7420 c-4 -74 -12 -232 -17 -350 -23 -476 -50 -753 -99 -1010
-41 -213 -60 -416 -71 -745 -5 -154 -12 -314 -14 -355 -3 -41 -1 -136 4 -210
5 -74 16 -281 24 -460 8 -179 19 -408 25 -510 48 -807 67 -1694 43 -1975 -7
-82 -20 -229 -28 -325 -14 -169 -42 -457 -65 -665 -23 -213 -83 -520 -130
-662 -11 -34 -34 -77 -50 -94 -19 -21 -26 -35 -19 -39 32 -20 778 -20 810 0 7
4 0 18 -19 39 -16 17 -39 60 -50 94 -47 142 -107 449 -130 662 -39 357 -72
724 -91 990 -13 190 -13 758 -1 1080 16 401 30 704 42 895 6 102 17 331 25
510 8 179 19 386 24 460 5 74 7 169 4 210 -2 41 -9 203 -14 360 -11 305 -28
506 -61 690 -20 111 -24 137 -47 300 -32 219 -46 394 -63 780 -6 140 -14 302
-18 360 l-7 105 -7 -135z"/>
</g>
</svg>
